<svg width="265" height="29" viewBox="0 0 265 29" fill="none" xmlns="http://www.w3.org/2000/svg">
<path d="M263.023 27.1328H259.859V6.3125C259.859 5.14062 258.902 4.18359 257.711 4.18359H253.824C252.516 4.18359 251.285 4.82812 250.523 5.90234L244.273 14.9062C243.805 15.5703 243.551 16.3711 243.551 17.1914V27.1328H240.387V17.1914C240.387 16.3711 240.133 15.5703 239.664 14.9062L233.414 5.90234C232.672 4.82812 231.441 4.18359 230.113 4.18359H226.227C225.055 4.18359 224.078 5.14062 224.078 6.3125V27.1328H220.914V6.3125C220.914 3.38281 223.297 1 226.227 1H230.113C232.477 1 234.684 2.15234 236.031 4.08594L241.969 12.6602L247.926 4.08594C249.254 2.15234 251.461 1 253.824 1H257.711C260.641 1 263.023 3.38281 263.023 6.3125V27.1328Z" fill="url(#paint0_linear_3205_47)"/>
<path d="M209.191 27.1328H197.453C193.488 27.1328 190.266 23.9102 190.266 19.9453V1H193.43V19.9453C193.43 22.1523 195.246 23.9492 197.453 23.9492H209.191C211.398 23.9492 213.195 22.1523 213.195 19.9453V1H216.379V19.9453C216.379 23.9102 213.156 27.1328 209.191 27.1328Z" fill="url(#paint1_linear_3205_47)"/>
<path d="M185.75 27.1328H182.586V1H185.75V27.1328Z" fill="url(#paint2_linear_3205_47)"/>
<path d="M167.816 27.1328H148.969V8.1875C148.969 4.22266 152.191 1 156.156 1H167.816C173.48 1 178.07 5.58984 178.07 11.2734V16.8594C178.07 22.543 173.48 27.1328 167.816 27.1328ZM167.816 23.9492C171.723 23.9492 174.906 20.7852 174.906 16.8594V11.2734C174.906 7.34766 171.723 4.18359 167.816 4.18359H156.156C153.949 4.18359 152.133 5.98047 152.133 8.1875V23.9492H167.816Z" fill="url(#paint3_linear_3205_47)"/>
<path d="M140.039 27.1328H138.086C136.387 27.1328 134.844 26.1367 134.121 24.6328L124.746 4.86719C124.551 4.4375 124.121 4.18359 123.652 4.18359H121.699C121.016 4.18359 120.469 4.71094 120.469 5.39453V27.1328H117.305V5.39453C117.305 2.97266 119.277 1 121.699 1H123.652C125.332 1 126.895 1.97656 127.617 3.5L136.992 23.2656C137.188 23.6758 137.617 23.9492 138.086 23.9492H140.039C140.703 23.9492 141.25 23.4219 141.25 22.7383V1H144.434V22.7383C144.434 25.1602 142.461 27.1328 140.039 27.1328Z" fill="url(#paint4_linear_3205_47)"/>
<path d="M113.18 27.1328H88.2969V8.1875C88.2969 4.22266 91.5195 1 95.4844 1H112.711V4.18359H95.4844C93.2773 4.18359 91.4609 5.98047 91.4609 8.1875V16.6445L93.9023 13.4609C95.25 11.7031 97.3984 10.6484 99.6055 10.6484H110.934V13.8125H99.6055C98.375 13.8125 97.1836 14.3984 96.4219 15.3945L91.4609 21.8594V23.9492H113.18V27.1328Z" fill="url(#paint5_linear_3205_47)"/>
<path d="M76.9648 27.1328H66.9062C61.2227 27.1328 56.6328 22.543 56.6328 16.8594V11.2734C56.6328 5.58984 61.2227 1 66.9062 1H82.5703V4.18359H66.9062C62.9805 4.18359 59.7969 7.34766 59.7969 11.2734V16.8594C59.7969 20.7852 62.9805 23.9492 66.9062 23.9492H76.9648C79.1719 23.9492 80.9883 22.1523 80.9883 19.9453V18.1289C80.9883 16.4492 79.6016 15.0625 77.9023 15.0625H65.3047V11.8789H77.9023C81.3398 11.8789 84.1523 14.6914 84.1523 18.1289V19.9453C84.1523 23.9102 80.9297 27.1328 76.9648 27.1328Z" fill="url(#paint6_linear_3205_47)"/>
<path d="M53.0938 27.1328H28.2109V8.1875C28.2109 4.22266 31.4336 1 35.3984 1H52.625V4.18359H35.3984C33.1914 4.18359 31.375 5.98047 31.375 8.1875V16.6445L33.8164 13.4609C35.1641 11.7031 37.3125 10.6484 39.5195 10.6484H50.8477V13.8125H39.5195C38.2891 13.8125 37.0977 14.3984 36.3359 15.3945L31.375 21.8594V23.9492H53.0938V27.1328Z" fill="url(#paint7_linear_3205_47)"/>
<path d="M24.4766 27.1328H8.1875C4.22266 27.1328 1 23.9102 1 19.9453V1H4.16406V19.9453C4.16406 22.1523 5.98047 23.9492 8.1875 23.9492H24.4766V27.1328Z" fill="url(#paint8_linear_3205_47)"/>
<path d="M263.023 6.3125C263.023 3.38281 260.641 1 257.711 1V0C261.193 0 264.023 2.83053 264.023 6.3125V28.1328H258.859V6.3125C258.859 5.69885 258.356 5.18359 257.711 5.18359H253.824C252.845 5.18359 251.916 5.66612 251.339 6.48047L245.095 15.4766L245.091 15.4834C244.742 15.9778 244.551 16.5765 244.551 17.1914V28.1328H239.387V17.1914C239.387 16.5765 239.196 15.9778 238.847 15.4834L238.843 15.4766L232.593 6.47266L232.592 6.4707C232.038 5.66965 231.116 5.18359 230.113 5.18359H226.227C225.595 5.18359 225.078 5.70473 225.078 6.3125V28.1328H219.914V6.3125C219.914 2.83053 222.745 0 226.227 0V1C223.297 1 220.914 3.38281 220.914 6.3125V27.1328H224.078V6.3125C224.078 5.14062 225.055 4.18359 226.227 4.18359H230.113C231.441 4.18359 232.672 4.82812 233.414 5.90234L239.664 14.9062C240.133 15.5703 240.387 16.3711 240.387 17.1914V27.1328H243.551V17.1914C243.551 16.3711 243.805 15.5703 244.273 14.9062L250.523 5.90234C251.285 4.82812 252.516 4.18359 253.824 4.18359H257.711C258.902 4.18359 259.859 5.14062 259.859 6.3125V27.1328H263.023V6.3125ZM253.824 1C251.461 1 249.254 2.15234 247.926 4.08594L241.969 12.6602L236.031 4.08594C234.684 2.15234 232.477 1 230.113 1V0C232.803 0 235.317 1.31169 236.852 3.51367L236.854 3.5166L241.97 10.9053L247.104 3.51562C248.622 1.3097 251.137 0 253.824 0V1ZM257.711 0V1H253.824V0H257.711ZM230.113 0V1H226.227V0H230.113Z" fill="url(#paint9_radial_3205_47)"/>
<path d="M209.191 22.9492V23.9492H197.453V22.9492H209.191ZM193.43 19.9453V1H190.266V19.9453C190.266 23.9102 193.488 27.1328 197.453 27.1328H209.191C213.156 27.1328 216.379 23.9102 216.379 19.9453V1H213.195V19.9453C213.195 22.1523 211.398 23.9492 209.191 23.9492V22.9492C210.846 22.9492 212.195 21.6001 212.195 19.9453V0H217.379V19.9453C217.379 24.4624 213.709 28.1328 209.191 28.1328H197.453C192.936 28.1328 189.266 24.4624 189.266 19.9453V0H194.43V19.9453C194.43 21.5937 195.792 22.9492 197.453 22.9492V23.9492C195.246 23.9492 193.43 22.1523 193.43 19.9453Z" fill="url(#paint10_radial_3205_47)"/>
<path d="M185.75 1H182.586V27.1328H185.75V1ZM186.75 28.1328H181.586V0H186.75V28.1328Z" fill="url(#paint11_radial_3205_47)"/>
<path d="M178.07 16.8594V11.2734C178.07 5.58984 173.48 1 167.816 1V0C174.034 0 179.07 5.0388 179.07 11.2734V16.8594C179.07 23.094 174.034 28.1328 167.816 28.1328H147.969V8.1875C147.969 3.67037 151.639 0 156.156 0V1C152.191 1 148.969 4.22266 148.969 8.1875V27.1328H167.816C173.48 27.1328 178.07 22.543 178.07 16.8594ZM152.133 8.1875C152.133 5.98047 153.949 4.18359 156.156 4.18359H167.816C171.723 4.18359 174.906 7.34766 174.906 11.2734V16.8594C174.906 20.7852 171.723 23.9492 167.816 23.9492V22.9492C171.172 22.9492 173.906 20.2311 173.906 16.8594V11.2734C173.906 7.90173 171.172 5.18359 167.816 5.18359H156.156C154.495 5.18359 153.133 6.53907 153.133 8.1875V22.9492H167.816V23.9492H152.133V8.1875ZM167.816 0V1H156.156V0H167.816Z" fill="url(#paint12_radial_3205_47)"/>
<path d="M120.469 5.39453C120.469 4.71094 121.016 4.18359 121.699 4.18359H123.652C124.121 4.18359 124.551 4.4375 124.746 4.86719L134.121 24.6328C134.844 26.1367 136.387 27.1328 138.086 27.1328H140.039C142.461 27.1328 144.434 25.1602 144.434 22.7383V1H141.25V22.7383C141.25 23.4219 140.703 23.9492 140.039 23.9492V22.9492C140.161 22.9492 140.25 22.8591 140.25 22.7383V0H145.434V22.7383C145.434 25.7124 143.013 28.1328 140.039 28.1328H138.086C135.996 28.1328 134.106 26.9107 133.22 25.0664L133.218 25.0615L123.843 5.2959L123.839 5.28809L123.836 5.28125C123.824 5.25396 123.804 5.23249 123.777 5.21582C123.749 5.19818 123.706 5.18359 123.652 5.18359H121.699C121.619 5.18359 121.562 5.21339 121.526 5.24805C121.493 5.28134 121.469 5.32801 121.469 5.39453V28.1328H116.305V5.39453C116.305 2.42037 118.725 0 121.699 0V1C119.277 1 117.305 2.97266 117.305 5.39453V27.1328H120.469V5.39453ZM140.039 22.9492V23.9492H138.086V22.9492H140.039ZM123.652 0C125.714 0 127.631 1.19544 128.521 3.07129L137.896 22.8359L137.925 22.8779C137.962 22.9181 138.021 22.9492 138.086 22.9492V23.9492C137.617 23.9492 137.188 23.6758 136.992 23.2656L127.617 3.5C126.895 1.97656 125.332 1 123.652 1V0ZM123.652 0V1H121.699V0H123.652Z" fill="url(#paint13_radial_3205_47)"/>
<path d="M113.18 23.9492H91.4609V21.8594L96.4219 15.3945C97.1836 14.3984 98.375 13.8125 99.6055 13.8125H110.934V10.6484H99.6055V9.64844H111.934V14.8125H99.6055C98.6881 14.8125 97.7893 15.252 97.2158 16.002L97.2148 16.0029L92.4609 22.1973V22.9492H114.18V28.1328H87.2969V8.1875C87.2969 3.67037 90.9672 0 95.4844 0V1C91.5195 1 88.2969 4.22266 88.2969 8.1875V27.1328H113.18V23.9492ZM91.4609 8.1875C91.4609 5.98047 93.2773 4.18359 95.4844 4.18359H112.711V1H95.4844V0H113.711V5.18359H95.4844C93.8233 5.18359 92.4609 6.53907 92.4609 8.1875V13.6963L93.1084 12.8525C94.6459 10.8471 97.0884 9.64844 99.6055 9.64844V10.6484C97.3984 10.6484 95.25 11.7031 93.9023 13.4609L91.4609 16.6445V8.1875Z" fill="url(#paint14_radial_3205_47)"/>
<path d="M55.6328 16.8594V11.2734C55.6328 5.03756 60.6704 0 66.9062 0V1C61.2227 1 56.6328 5.58984 56.6328 11.2734V16.8594C56.6328 22.543 61.2227 27.1328 66.9062 27.1328H76.9648C80.9297 27.1328 84.1523 23.9102 84.1523 19.9453V18.1289C84.1523 14.6914 81.3398 11.8789 77.9023 11.8789V10.8789C81.8921 10.8789 85.1523 14.1391 85.1523 18.1289V19.9453C85.1523 24.4624 81.482 28.1328 76.9648 28.1328H66.9062C60.6704 28.1328 55.6328 23.0953 55.6328 16.8594ZM76.9648 22.9492V23.9492H66.9062V22.9492H76.9648ZM79.9883 19.9453V18.1289C79.9883 17.0056 79.0534 16.0625 77.9023 16.0625H64.3047V10.8789H77.9023V11.8789H65.3047V15.0625H77.9023C79.6016 15.0625 80.9883 16.4492 80.9883 18.1289V19.9453C80.9883 22.1523 79.1719 23.9492 76.9648 23.9492V22.9492C78.6259 22.9492 79.9883 21.5937 79.9883 19.9453ZM59.7969 16.8594V11.2734C59.7969 7.34766 62.9805 4.18359 66.9062 4.18359H82.5703V1H66.9062V0H83.5703V5.18359H66.9062C63.5292 5.18359 60.7969 7.90352 60.7969 11.2734V16.8594C60.7969 20.2293 63.5292 22.9492 66.9062 22.9492V23.9492C62.9805 23.9492 59.7969 20.7852 59.7969 16.8594Z" fill="url(#paint15_radial_3205_47)"/>
<path d="M53.0938 23.9492H31.375V21.8594L36.3359 15.3945C37.0977 14.3984 38.2891 13.8125 39.5195 13.8125H50.8477V10.6484H39.5195V9.64844H51.8477V14.8125H39.5195C38.6022 14.8125 37.7034 15.252 37.1299 16.002L37.1289 16.0029L32.375 22.1973V22.9492H54.0938V28.1328H27.2109V8.1875C27.2109 3.67037 30.8813 0 35.3984 0V1C31.4336 1 28.2109 4.22266 28.2109 8.1875V27.1328H53.0938V23.9492ZM31.375 8.1875C31.375 5.98047 33.1914 4.18359 35.3984 4.18359H52.625V1H35.3984V0H53.625V5.18359H35.3984C33.7374 5.18359 32.375 6.53907 32.375 8.1875V13.6963L33.0225 12.8525C34.56 10.8471 37.0025 9.64844 39.5195 9.64844V10.6484C37.3125 10.6484 35.1641 11.7031 33.8164 13.4609L31.375 16.6445V8.1875Z" fill="url(#paint16_radial_3205_47)"/>
<path d="M4.16406 19.9453V1H1V19.9453C1 23.9102 4.22266 27.1328 8.1875 27.1328H24.4766V23.9492H8.1875V22.9492H25.4766V28.1328H8.1875C3.67037 28.1328 0 24.4624 0 19.9453V0H5.16406V19.9453C5.16406 21.5937 6.52642 22.9492 8.1875 22.9492V23.9492C5.98047 23.9492 4.16406 22.1523 4.16406 19.9453Z" fill="url(#paint17_radial_3205_47)"/>
<path d="M156.828 10.1328C156.828 9.58053 157.276 9.13281 157.828 9.13281H160.828C161.38 9.13281 161.828 9.58053 161.828 10.1328V12.1328C161.828 12.6851 161.38 13.1328 160.828 13.1328H157.828C157.276 13.1328 156.828 12.6851 156.828 12.1328V10.1328Z" fill="#1BECFF"/>
<path d="M164.828 10.1328C164.828 9.58053 165.276 9.13281 165.828 9.13281H168.828C169.38 9.13281 169.828 9.58053 169.828 10.1328V12.1328C169.828 12.6851 169.38 13.1328 168.828 13.1328H165.828C165.276 13.1328 164.828 12.6851 164.828 12.1328V10.1328Z" fill="#1BECFF"/>
<defs>
<linearGradient id="paint0_linear_3205_47" x1="-1053.59" y1="95.4564" x2="-1010.23" y2="-219.54" gradientUnits="userSpaceOnUse">
<stop stop-color="white"/>
<stop offset="0.2" stop-color="white"/>
<stop offset="0.4" stop-color="white"/>
<stop offset="0.6" stop-color="white"/>
<stop offset="0.8" stop-color="#A9A9A9"/>
<stop offset="1" stop-color="#C0C0C0"/>
</linearGradient>
<linearGradient id="paint1_linear_3205_47" x1="-1389.11" y1="95.4564" x2="-1361.91" y2="-223.189" gradientUnits="userSpaceOnUse">
<stop stop-color="white"/>
<stop offset="0.2" stop-color="white"/>
<stop offset="0.4" stop-color="white"/>
<stop offset="0.6" stop-color="white"/>
<stop offset="0.8" stop-color="#A9A9A9"/>
<stop offset="1" stop-color="#C0C0C0"/>
</linearGradient>
<linearGradient id="paint2_linear_3205_47" x1="-10823.6" y1="95.4564" x2="-10820.3" y2="-225.477" gradientUnits="userSpaceOnUse">
<stop stop-color="white"/>
<stop offset="0.2" stop-color="white"/>
<stop offset="0.4" stop-color="white"/>
<stop offset="0.6" stop-color="white"/>
<stop offset="0.8" stop-color="#A9A9A9"/>
<stop offset="1" stop-color="#C0C0C0"/>
</linearGradient>
<linearGradient id="paint3_linear_3205_47" x1="-871.808" y1="95.4564" x2="-841.542" y2="-222.632" gradientUnits="userSpaceOnUse">
<stop stop-color="white"/>
<stop offset="0.2" stop-color="white"/>
<stop offset="0.4" stop-color="white"/>
<stop offset="0.6" stop-color="white"/>
<stop offset="0.8" stop-color="#A9A9A9"/>
<stop offset="1" stop-color="#C0C0C0"/>
</linearGradient>
<linearGradient id="paint4_linear_3205_47" x1="-627.04" y1="95.4564" x2="-598.793" y2="-223.006" gradientUnits="userSpaceOnUse">
<stop stop-color="white"/>
<stop offset="0.2" stop-color="white"/>
<stop offset="0.4" stop-color="white"/>
<stop offset="0.6" stop-color="white"/>
<stop offset="0.8" stop-color="#A9A9A9"/>
<stop offset="1" stop-color="#C0C0C0"/>
</linearGradient>
<linearGradient id="paint5_linear_3205_47" x1="-375.849" y1="95.4564" x2="-349.908" y2="-223.401" gradientUnits="userSpaceOnUse">
<stop stop-color="white"/>
<stop offset="0.2" stop-color="white"/>
<stop offset="0.4" stop-color="white"/>
<stop offset="0.6" stop-color="white"/>
<stop offset="0.8" stop-color="#A9A9A9"/>
<stop offset="1" stop-color="#C0C0C0"/>
</linearGradient>
<linearGradient id="paint6_linear_3205_47" x1="-36.0516" y1="95.4564" x2="-7.40348" y2="-222.934" gradientUnits="userSpaceOnUse">
<stop stop-color="white"/>
<stop offset="0.2" stop-color="white"/>
<stop offset="0.4" stop-color="white"/>
<stop offset="0.6" stop-color="white"/>
<stop offset="0.8" stop-color="#A9A9A9"/>
<stop offset="1" stop-color="#C0C0C0"/>
</linearGradient>
<linearGradient id="paint7_linear_3205_47" x1="261.703" y1="95.4564" x2="287.645" y2="-223.401" gradientUnits="userSpaceOnUse">
<stop stop-color="white"/>
<stop offset="0.2" stop-color="white"/>
<stop offset="0.4" stop-color="white"/>
<stop offset="0.6" stop-color="white"/>
<stop offset="0.8" stop-color="#A9A9A9"/>
<stop offset="1" stop-color="#C0C0C0"/>
</linearGradient>
<linearGradient id="paint8_linear_3205_47" x1="583.401" y1="95.4564" x2="607.894" y2="-223.632" gradientUnits="userSpaceOnUse">
<stop stop-color="white"/>
<stop offset="0.2" stop-color="white"/>
<stop offset="0.4" stop-color="white"/>
<stop offset="0.6" stop-color="white"/>
<stop offset="0.8" stop-color="#A9A9A9"/>
<stop offset="1" stop-color="#C0C0C0"/>
</linearGradient>
<radialGradient id="paint9_radial_3205_47" cx="0" cy="0" r="1" gradientUnits="userSpaceOnUse" gradientTransform="translate(-443.453 15.1328) scale(873.905 32)">
<stop stop-color="#D1D1D1"/>
<stop offset="0.423077" stop-color="white"/>
<stop offset="1" stop-color="#DAD8D8"/>
</radialGradient>
<radialGradient id="paint10_radial_3205_47" cx="0" cy="0" r="1" gradientUnits="userSpaceOnUse" gradientTransform="translate(-407.94 15.1328) scale(1371.15 32)">
<stop stop-color="#D1D1D1"/>
<stop offset="0.423077" stop-color="white"/>
<stop offset="1" stop-color="#DAD8D8"/>
</radialGradient>
<radialGradient id="paint11_radial_3205_47" cx="0" cy="0" r="1" gradientUnits="userSpaceOnUse" gradientTransform="translate(-1828.19 15.1328) scale(7464.55 32)">
<stop stop-color="#D1D1D1"/>
<stop offset="0.423077" stop-color="white"/>
<stop offset="1" stop-color="#DAD8D8"/>
</radialGradient>
<radialGradient id="paint12_radial_3205_47" cx="0" cy="0" r="1" gradientUnits="userSpaceOnUse" gradientTransform="translate(-18.1719 15.1328) scale(1239.4 32)">
<stop stop-color="#D1D1D1"/>
<stop offset="0.423077" stop-color="white"/>
<stop offset="1" stop-color="#DAD8D8"/>
</radialGradient>
<radialGradient id="paint13_radial_3205_47" cx="0" cy="0" r="1" gradientUnits="userSpaceOnUse" gradientTransform="translate(267.599 15.1328) scale(1323.34 32)">
<stop stop-color="#D1D1D1"/>
<stop offset="0.423077" stop-color="white"/>
<stop offset="1" stop-color="#DAD8D8"/>
</radialGradient>
<radialGradient id="paint14_radial_3205_47" cx="0" cy="0" r="1" gradientUnits="userSpaceOnUse" gradientTransform="translate(574.851 15.1328) scale(1433.91 32)">
<stop stop-color="#D1D1D1"/>
<stop offset="0.423077" stop-color="white"/>
<stop offset="1" stop-color="#DAD8D8"/>
</radialGradient>
<radialGradient id="paint15_radial_3205_47" cx="0" cy="0" r="1" gradientUnits="userSpaceOnUse" gradientTransform="translate(806.709 15.1328) scale(1305.83 32)">
<stop stop-color="#D1D1D1"/>
<stop offset="0.423077" stop-color="white"/>
<stop offset="1" stop-color="#DAD8D8"/>
</radialGradient>
<radialGradient id="paint16_radial_3205_47" cx="0" cy="0" r="1" gradientUnits="userSpaceOnUse" gradientTransform="translate(1164.97 15.1328) scale(1433.91 32)">
<stop stop-color="#D1D1D1"/>
<stop offset="0.423077" stop-color="white"/>
<stop offset="1" stop-color="#DAD8D8"/>
</radialGradient>
<radialGradient id="paint17_radial_3205_47" cx="0" cy="0" r="1" gradientUnits="userSpaceOnUse" gradientTransform="translate(1511.27 15.1328) scale(1513.05 32)">
<stop stop-color="#D1D1D1"/>
<stop offset="0.423077" stop-color="white"/>
<stop offset="1" stop-color="#DAD8D8"/>
</radialGradient>
</defs>
</svg>
